<?xml version="1.0" encoding="UTF-8"?>
<svg version="1.1" xmlns="http://www.w3.org/2000/svg" width="200" height="200">
<path d="M0 0 C66 0 132 0 200 0 C200 66 200 132 200 200 C134 200 68 200 0 200 C0 134 0 68 0 0 Z " fill="#E8E8E6" transform="translate(0,0)"/>
<path d="M0 0 C0.92515915 0.00848969 1.8503183 0.01697937 2.80351257 0.02572632 C5.74911546 0.05922789 8.69194803 0.1344999 11.63671875 0.2109375 C13.63733016 0.24104135 15.63798463 0.26841642 17.63867188 0.29296875 C22.53491633 0.35900858 27.42909841 0.46250717 32.32421875 0.5859375 C32.08638672 1.95105469 32.08638672 1.95105469 31.84375 3.34375 C30.91074557 9.16625882 30.4457319 13.39855838 33.32421875 18.5859375 C35.55756963 22.6697791 36.25907964 25.98354544 35.32421875 30.5859375 C34.38880534 32.65029813 33.3180868 34.59698802 32.21875 36.578125 C29.94198995 41.68840738 31.39745866 47.26648525 32.32421875 52.5859375 C26.43443819 52.73444816 20.54575103 52.84323073 14.65454102 52.91552734 C12.65141818 52.94566899 10.648427 52.98659065 8.64575195 53.03857422 C5.76350424 53.11150631 2.8830032 53.14541924 0 53.171875 C-0.8928923 53.20284271 -1.78578461 53.23381042 -2.70573425 53.26571655 C-8.74412999 53.2689724 -8.74412999 53.2689724 -11.36636353 51.34649658 C-14.3275434 48.00739552 -15.38111951 45.13458029 -15.1171875 40.65625 C-14.62667389 38.35561096 -13.80286508 36.64619826 -12.67578125 34.5859375 C-10.44243037 30.5020959 -9.74092036 27.18832956 -10.67578125 22.5859375 C-11.60946683 20.52539 -12.68024608 18.57777599 -13.765625 16.59375 C-15.4065888 12.97376976 -15.24912102 10.53561146 -14.67578125 6.5859375 C-10.72167869 0.01993692 -7.3559554 -0.25512272 0 0 Z " fill="#5F5451" transform="translate(33.67578125,73.4140625)"/>
<path d="M0 0 C4.92957259 -0.07414321 9.85882081 -0.12859817 14.78881836 -0.16479492 C16.4659592 -0.17988384 18.14306057 -0.20035748 19.82006836 -0.22631836 C22.23040504 -0.26269811 24.64022019 -0.27972486 27.05078125 -0.29296875 C27.80087967 -0.30845261 28.55097809 -0.32393646 29.32380676 -0.33988953 C34.47051674 -0.34155435 34.47051674 -0.34155435 37.00854492 1.2956543 C38.7222788 4.24162233 37.75100536 6.82266962 37 10 C35 12 35 12 31.56005859 12.22705078 C30.08948021 12.22673369 28.61887858 12.21540987 27.1484375 12.1953125 C26.37440582 12.1924826 25.60037415 12.18965271 24.80288696 12.18673706 C22.32676843 12.17552754 19.8510095 12.15042203 17.375 12.125 C15.69792188 12.11497118 14.02083811 12.10584516 12.34375 12.09765625 C8.22902777 12.07558574 4.11457489 12.04105102 0 12 C0 8.04 0 4.08 0 0 Z " fill="#DC717D" transform="translate(27,94)"/>
<path d="M0 0 C1.12350861 0.00636726 1.12350861 0.00636726 2.26971436 0.01286316 C4.65413875 0.02961129 7.03770753 0.06725478 9.421875 0.10546875 C11.04165443 0.12052066 12.66144715 0.13420818 14.28125 0.14648438 C18.24511966 0.17950195 22.20835243 0.23125629 26.171875 0.29296875 C25.841875 4.25296875 25.511875 8.21296875 25.171875 12.29296875 C20.38474567 12.3918371 15.59821025 12.46443498 10.81030273 12.51269531 C9.18161671 12.53281256 7.55300292 12.56011012 5.92456055 12.59472656 C3.58364042 12.64324304 1.24367482 12.66593507 -1.09765625 12.68359375 C-1.82588089 12.70423889 -2.55410553 12.72488403 -3.30439758 12.74615479 C-8.35033288 12.74839512 -8.35033288 12.74839512 -10.78393555 10.42871094 C-12.08705204 7.76337003 -12.35353668 6.2202624 -11.828125 3.29296875 C-8.40335968 -0.34543669 -4.685726 -0.10034129 0 0 Z " fill="#EEC964" transform="translate(34.828125,109.70703125)"/>
<path d="M0 0 C0.75042068 0.00424484 1.50084137 0.00848969 2.27400208 0.01286316 C4.66871151 0.02964425 7.06257659 0.06729385 9.45703125 0.10546875 C11.08136805 0.1205164 12.70571805 0.13420466 14.33007812 0.14648438 C18.31022073 0.1795457 22.28973288 0.23132281 26.26953125 0.29296875 C26.76453125 6.23296875 26.76453125 6.23296875 27.26953125 12.29296875 C22.50071249 12.3919701 17.73249395 12.46449803 12.96289062 12.51269531 C11.34103982 12.53279019 9.71926128 12.56007129 8.09765625 12.59472656 C5.76414145 12.64334145 3.43158568 12.66595764 1.09765625 12.68359375 C0.01306122 12.71456146 0.01306122 12.71456146 -1.09344482 12.74615479 C-4.55693452 12.7476927 -6.39485847 12.547106 -9.19238281 10.42871094 C-10.73046875 8.29296875 -10.73046875 8.29296875 -11.16796875 5.73046875 C-10.04156237 -0.54522393 -5.43675769 -0.11559891 0 0 Z " fill="#75BA97" transform="translate(33.73046875,77.70703125)"/>
<path d="M0 0 C2.27864583 0.06510417 4.55729167 0.13020833 6.8359375 0.1953125 C6.8359375 3.8253125 6.8359375 7.4553125 6.8359375 11.1953125 C5.4128125 11.2571875 3.9896875 11.3190625 2.5234375 11.3828125 C1.32267578 11.43501953 1.32267578 11.43501953 0.09765625 11.48828125 C-2.1640625 11.1953125 -2.1640625 11.1953125 -3.96875 9.875 C-5.1640625 8.1953125 -5.1640625 8.1953125 -4.9765625 5.1328125 C-4.06653811 1.84272433 -3.55939365 0.32124491 0 0 Z " fill="#6F6563" transform="translate(99.1640625,96.8046875)"/>
<path d="M0 0 C1.9375 1.0625 1.9375 1.0625 3 3 C2.875 6.5625 2.875 6.5625 2 10 C-1 12 -1 12 -4.0625 11.8125 C-7 11 -7 11 -9 8 C-8.75 4.375 -8.75 4.375 -8 1 C-5.20129973 -0.39935013 -3.09501208 -0.25265405 0 0 Z " fill="#736967" transform="translate(153,97)"/>
<path d="M0 0 C1.91015625 0.23046875 1.91015625 0.23046875 3.91015625 2.23046875 C3.921875 4.359375 3.921875 4.359375 3.59765625 6.79296875 C3.49839844 7.59863281 3.39914063 8.40429688 3.296875 9.234375 C2.91015625 11.23046875 2.91015625 11.23046875 1.91015625 12.23046875 C-4.3481219 12.80993895 -4.3481219 12.80993895 -7.08984375 10.66796875 C-8.49648337 7.23928467 -7.89521776 4.78753728 -7.08984375 1.23046875 C-5.19495423 -0.66442077 -2.51845229 0.05027763 0 0 Z " fill="#6D6462" transform="translate(175.08984375,96.76953125)"/>
<path d="M0 0 C8.91 0 17.82 0 27 0 C27 1.32 27 2.64 27 4 C18.09 4 9.18 4 0 4 C0 2.68 0 1.36 0 0 Z " fill="#5E5350" transform="translate(28,114)"/>
<path d="M0 0 C8.91 0 17.82 0 27 0 C27 1.32 27 2.64 27 4 C18.09 4 9.18 4 0 4 C0 2.68 0 1.36 0 0 Z " fill="#5E5250" transform="translate(33,98)"/>
<path d="M0 0 C8.91 0 17.82 0 27 0 C27 1.32 27 2.64 27 4 C18.09 4 9.18 4 0 4 C0 2.68 0 1.36 0 0 Z " fill="#5D5350" transform="translate(28,82)"/>
<path d="M0 0 C1.60875 -0.04125 3.2175 -0.0825 4.875 -0.125 C5.77992188 -0.14820312 6.68484375 -0.17140625 7.6171875 -0.1953125 C10 0 10 0 12 2 C12.1953125 4.1640625 12.1953125 4.1640625 12.125 6.625 C12.10695312 7.44226563 12.08890625 8.25953125 12.0703125 9.1015625 C12.03550781 10.04128906 12.03550781 10.04128906 12 11 C10.68 11 9.36 11 8 11 C8 8.69 8 6.38 8 4 C7.01 4.33 6.02 4.66 5 5 C4.67 6.98 4.34 8.96 4 11 C2.68 11 1.36 11 0 11 C0 7.37 0 3.74 0 0 Z " fill="#695F5D" transform="translate(130,97)"/>
<path d="M0 0 C1.32 0 2.64 0 4 0 C4 1.32 4 2.64 4 4 C4.99 4 5.98 4 7 4 C7 5.32 7 6.64 7 8 C6.01 8 5.02 8 4 8 C4 9.32 4 10.64 4 12 C4.99 12 5.98 12 7 12 C6.67 13.32 6.34 14.64 6 16 C1.125 15.125 1.125 15.125 0 14 C-0.04080783 12.00041636 -0.04254356 9.99954746 0 8 C-0.66 8 -1.32 8 -2 8 C-2 6.68 -2 5.36 -2 4 C-1.34 4 -0.68 4 0 4 C0 2.68 0 1.36 0 0 Z " fill="#655A58" transform="translate(159,93)"/>
<path d="M0 0 C2.05078125 0.03255208 4.1015625 0.06510417 6.15234375 0.09765625 C6.15234375 1.08765625 6.15234375 2.07765625 6.15234375 3.09765625 C5.16234375 3.59265625 5.16234375 3.59265625 4.15234375 4.09765625 C5.14234375 4.75765625 6.13234375 5.41765625 7.15234375 6.09765625 C6.82234375 7.74765625 6.49234375 9.39765625 6.15234375 11.09765625 C-0.59765625 12.22265625 -0.59765625 12.22265625 -2.84765625 11.09765625 C-2.84765625 10.10765625 -2.84765625 9.11765625 -2.84765625 8.09765625 C0.12234375 8.59265625 0.12234375 8.59265625 3.15234375 9.09765625 C3.15234375 8.43765625 3.15234375 7.77765625 3.15234375 7.09765625 C1.50234375 6.76765625 -0.14765625 6.43765625 -1.84765625 6.09765625 C-2.22984392 4.44150968 -2.56160727 2.77308601 -2.84765625 1.09765625 C-1.84765625 0.09765625 -1.84765625 0.09765625 0 0 Z " fill="#695F5D" transform="translate(110.84765625,96.90234375)"/>
<path d="M0 0 C0.66 0.33 1.32 0.66 2 1 C1.67 1.99 1.34 2.98 1 4 C-0.65 4.33 -2.3 4.66 -4 5 C-4 5.66 -4 6.32 -4 7 C-2.35 7 -0.7 7 1 7 C1 8.32 1 9.64 1 11 C0 12 0 12 -2.3125 12.3125 C-5 12 -5 12 -7.3125 10.3125 C-9 8 -9 8 -9.4375 5.4375 C-9 3 -9 3 -7.875 1.1875 C-5.18909098 -0.51357571 -3.11342901 -0.26497268 0 0 Z " fill="#695F5D" transform="translate(84,97)"/>
<path d="M0 0 C1.134375 0.020625 2.26875 0.04125 3.4375 0.0625 C3.4375 1.0525 3.4375 2.0425 3.4375 3.0625 C2.4475 3.5575 2.4475 3.5575 1.4375 4.0625 C2.4275 4.7225 3.4175 5.3825 4.4375 6.0625 C4.1075 7.7125 3.7775 9.3625 3.4375 11.0625 C-3.3125 12.1875 -3.3125 12.1875 -5.5625 11.0625 C-5.5625 10.0725 -5.5625 9.0825 -5.5625 8.0625 C-2.5925 8.5575 -2.5925 8.5575 0.4375 9.0625 C0.4375 8.4025 0.4375 7.7425 0.4375 7.0625 C-1.2125 6.7325 -2.8625 6.4025 -4.5625 6.0625 C-4.605221 4.39638095 -4.60313832 2.72867115 -4.5625 1.0625 C-3.5625 0.0625 -3.5625 0.0625 0 0 Z " fill="#665C5A" transform="translate(124.5625,96.9375)"/>
<path d="M0 0 C0.99 0 1.98 0 3 0 C3 4.62 3 9.24 3 14 C3.66 14 4.32 14 5 14 C5 15.32 5 16.64 5 18 C2.5625 17.625 2.5625 17.625 0 17 C-1.49341703 14.01316593 -1.13175178 11.25600226 -1.125 7.9375 C-1.12757812 6.66777344 -1.13015625 5.39804688 -1.1328125 4.08984375 C-1 1 -1 1 0 0 Z " fill="#685D5B" transform="translate(88,91)"/>
<path d="M0 0 C0 2.31 0 4.62 0 7 C-2.31 6.67 -4.62 6.34 -7 6 C-7 4.68 -7 3.36 -7 2 C-1.125 0 -1.125 0 0 0 Z " fill="#DEDEDC" transform="translate(87,99)"/>
<path d="M0 0 C2 2 2 2 2.125 5.625 C2.08375 6.73875 2.0425 7.8525 2 9 C-0.475 8.01 -0.475 8.01 -3 7 C-3 5.68 -3 4.36 -3 3 C-2.01 3 -1.02 3 0 3 C0 2.01 0 1.02 0 0 Z " fill="#DDDCDA" transform="translate(166,98)"/>
<path d="M0 0 C0 1.65 0 3.3 0 5 C-3.37462715 4.45276317 -5.08235 3.9451 -8 2 C-1.125 0 -1.125 0 0 0 Z " fill="#D2D0CE" transform="translate(120,98)"/>
</svg>
